<svg width="128" height="128" viewBox="0 0 128 128" xmlns="http://www.w3.org/2000/svg" role="img" aria-label="Gaļas grozs pig logo">
  <rect width="128" height="128" rx="34" fill="#FFF3DF"></rect>
  <circle cx="64" cy="66" r="42" fill="#F7A7A0"></circle>
  <path d="M31 50C25 38 27 28 35 24C43 20 52 28 55 39" fill="#F7A7A0"></path>
  <path d="M97 50C103 38 101 28 93 24C85 20 76 28 73 39" fill="#F7A7A0"></path>
  <path d="M36 28C42 27 48 34 51 43" fill="none" stroke="#2A1F17" stroke-width="5" stroke-linecap="round"></path>
  <path d="M92 28C86 27 80 34 77 43" fill="none" stroke="#2A1F17" stroke-width="5" stroke-linecap="round"></path>
  <circle cx="50" cy="59" r="5" fill="#2A1F17"></circle>
  <circle cx="78" cy="59" r="5" fill="#2A1F17"></circle>
  <ellipse cx="64" cy="78" rx="19" ry="14" fill="#F47F73"></ellipse>
  <circle cx="57" cy="78" r="3.5" fill="#2A1F17"></circle>
  <circle cx="71" cy="78" r="3.5" fill="#2A1F17"></circle>
  <path d="M49 92C56 99 72 99 79 92" fill="none" stroke="#2A1F17" stroke-width="5" stroke-linecap="round"></path>
  <path d="M33 70C32 47 46 31 64 31C82 31 96 47 95 70" fill="none" stroke="#2A1F17" stroke-width="5" stroke-linecap="round"></path>
</svg>